<?xml version="1.0" encoding="iso-8859-1"?>
<svg fill="#000000" height="800px" width="800px" version="1.1" id="Capa_1" xmlns="http://www.w3.org/2000/svg" xmlns:xlink="http://www.w3.org/1999/xlink" 
	 viewBox="0 0 612.001 612.001" xml:space="preserve">
<g>
	<g>
		<path d="M580.422,98.505c-70.71-109.489-256.199-88.149-350.399-27.542c-118.808,76.441,60.841,126.507,25.351,233.621
			c49.102,43.168,93.101,89.021,133.665,139.377c17.24-3.593,32.819-8.489,44.886-14.198
			C574.951,363.017,662.269,225.457,580.422,98.505z M325.002,189.829c-26.066,0-47.198-21.13-47.198-47.2
			c0-26.068,21.132-47.2,47.198-47.2s47.201,21.132,47.201,47.2C372.203,168.699,351.07,189.829,325.002,189.829z M411.827,374.149
			c-17.376,0-31.465-14.088-31.465-31.466c0-17.38,14.09-31.466,31.465-31.466c17.38,0,31.466,14.088,31.466,31.466
			C443.292,360.059,429.207,374.149,411.827,374.149z M447.141,126.898c0-17.38,14.087-31.466,31.465-31.466
			c17.376,0,31.465,14.087,31.465,31.466s-14.09,31.465-31.465,31.465C461.228,158.363,447.141,144.278,447.141,126.898z
			 M505.429,275.028c-17.378,0-31.468-14.085-31.468-31.465s14.09-31.466,31.468-31.466c17.376,0,31.465,14.087,31.465,31.466
			C536.896,260.944,522.805,275.028,505.429,275.028z"/>
		<path d="M433.078,558.156c-25.349-38.697-51.883-74.682-80.143-108.588c0.336-0.22,0.307-0.326-0.23-0.28
			c-34.352-41.188-71.263-79.304-111.75-115.439c-16.922-15.104-34.466-29.862-52.712-44.357l-63.257-67.618
			c-0.874-0.944-2.094-1.49-3.378-1.515c-0.034,0-0.065,0-0.097,0c-1.246,0-2.45,0.497-3.332,1.382l-53.659,53.661
			c-0.909,0.908-1.406,2.146-1.384,3.431c0.027,1.283,0.577,2.501,1.52,3.375l67.592,63.233
			c77.791,97.919,163.199,175.75,268.686,244.86c0.79,0.519,1.691,0.773,2.587,0.773c1.22,0,2.428-0.471,3.339-1.382l25.611-25.612
			C434.047,562.498,434.305,560.026,433.078,558.156z"/>
		<path d="M109.377,206.527l-47.918-47.921c-0.921-0.921-2.129-1.384-3.337-1.384c-1.208,0-2.416,0.462-3.337,1.384l-9.748,9.746
			c-1.699,1.698-1.85,4.405-0.353,6.282l24.244,30.34l-30.342-24.239c-0.865-0.691-1.906-1.031-2.943-1.031
			c-1.213,0-2.419,0.464-3.336,1.382l-10.824,10.819c-1.699,1.699-1.85,4.406-0.35,6.282l16.09,20.137l-20.139-16.086
			c-0.867-0.691-1.909-1.032-2.947-1.032c-1.215,0-2.423,0.466-3.339,1.382l-9.417,9.417c-1.843,1.844-1.839,4.834,0,6.676
			l47.925,47.921c0.921,0.921,2.129,1.384,3.337,1.384c1.208,0,2.416-0.461,3.337-1.384l53.397-53.4
			C111.219,211.357,111.219,208.369,109.377,206.527z"/>
	</g>
</g>
</svg>